<?xml version="1.0" standalone="no"?>
<!DOCTYPE svg PUBLIC "-//W3C//DTD SVG 20010904//EN"
 "http://www.w3.org/TR/2001/REC-SVG-20010904/DTD/svg10.dtd">
<svg version="1.0" xmlns="http://www.w3.org/2000/svg"
 width="600.000000pt" height="409.000000pt" viewBox="0 0 600.000000 409.000000"
 preserveAspectRatio="xMidYMid meet">

<g transform="translate(0.000000,409.000000) scale(0.100000,-0.100000)"
fill="#121212" stroke="#000000" stroke-width="20">
<path d="M0 2050 l0 -2040 545 0 545 0 0 150 0 150 -362 2 -363 3 -3 1738 -2
1737 365 0 365 0 0 150 0 150 -545 0 -545 0 0 -2040z"/>
<path d="M3910 3930 l0 -150 363 -2 362 -3 3 -1737 2 -1738 -365 0 -365 0 0
-150 0 -150 545 0 545 0 0 2040 0 2040 -545 0 -545 0 0 -150z"/>
<path d="M1446 3372 c-4 -6 -681 -1866 -807 -2215 l-38 -107 157 0 157 0 115
325 114 325 505 -2 506 -3 22 -60 22 -60 1 440 1 440 -168 462 -168 463 -207
0 c-114 0 -209 -4 -212 -8z m408 -836 c108 -301 196 -554 196 -562 0 -12 -65
-14 -405 -14 -223 0 -405 3 -405 6 0 22 405 1133 411 1127 4 -5 96 -255 203
-557z"/>
<path d="M2262 1943 l3 -1168 153 -3 152 -3 0 576 0 575 585 0 585 0 0 -575 0
-575 155 0 155 0 0 1170 0 1170 -155 0 -155 0 0 -455 0 -455 -585 0 -585 0 0
455 0 455 -155 0 -155 0 2 -1167z"/>
</g>
</svg>
